Simulation
nRows=36
nColumns=15
endheader
time  TH_x TH_y TH_z SC_y  SC_z  SC_x  AC_y  AC_z  AC_x  GH_y  GH_z  GH_yy  EL_x  PS_y
0.75  0.000000  0.000000  0.000000  6.227182290575829  29.39743685811233  52.18615471496438  18.841097251371355  -58.253227382075366  8.74854346068373  24.950177777884374  24.875935677224874  33.86809736443073  23.86097167480092  0.000000
0.765  0.000000  0.000000  0.000000  0.6907031770083263  28.375543011066757  59.608648043479434  57.835251075764624  -47.659622893738835  20.443067102090392  38.114255621545354  28.75901377160506  13.155794424339662  16.26320949182168  0.000000
0.78  0.000000  0.000000  0.000000  -20.615544976657542  14.792714351509865  55.35603233955164  74.36806672154874  -25.065711759209815  7.816891417392904  58.52129326884706  32.70042487680517  -16.184744568979337  24.693656043286243  0.000000
0.7949999999999999  0.000000  0.000000  0.000000  -37.93883123268104  1.2373759252463825  37.60056682380855  71.52864901041288  -14.782374010898966  0.944194274159339  59.17595505881522  32.37998212775742  -27.249493704386857  35.22881936046822  0.000000
0.8099999999999999  0.000000  0.000000  0.000000  -44.78209638329663  -1.2254958319513554  30.980644396936853  65.70271702421564  -16.228639355763658  -2.395645805634801  54.18941208688822  32.77548585961939  -33.476204875858  28.981550313274322  0.000000
0.825  0.000000  0.000000  0.000000  -39.95251574022202  3.5114782566502445  28.71310681199104  58.56837127187689  -15.403855886328168  -4.655073096373407  47.279546773808924  32.89158745843707  -34.63367281998919  23.126248596587363  0.000000
0.84  0.000000  0.000000  0.000000  -35.199282233808944  4.950100371087523  26.765224091381317  54.97978904918835  -11.559933503727535  -6.624300052223878  39.04425876253823  31.89635968606878  -29.549973449144453  20.80131954513477  0.000000
0.855  0.000000  0.000000  0.000000  -34.3865183093803  3.2084122442659884  25.8254840661565  54.224148626998776  -6.727272805176092  -9.415843449758997  34.91771695558094  32.28858903135046  -26.369698978154464  19.201024172969788  0.000000
0.87  0.000000  0.000000  0.000000  -34.74607507896962  2.1402825129755647  25.049835834399126  54.60240681817532  -3.795551398782285  -9.807521625764828  30.340031300172388  33.05785413009702  -23.77117403412592  18.734886637587906  0.000000
0.885  0.000000  0.000000  0.000000  -35.562232047416344  2.126911525264703  24.365274273896297  55.81132152144207  -2.2773747427610966  -8.212593330816476  25.360138574331895  33.92428240259683  -21.54459273470232  18.098353527184837  0.000000
0.8999999999999999  0.000000  0.000000  0.000000  -35.7113750951754  2.513527136204829  23.829121410274315  56.15248903370954  -0.45962115545335114  -7.559200611511865  23.411459584203197  34.64927653349096  -21.039449102902115  17.780296874582948  0.000000
0.9149999999999999  0.000000  0.000000  0.000000  -35.59934878652682  2.893061418362336  23.556194425225684  55.42913654520764  1.6662676237103349  -7.57780431905576  23.693212391008455  35.141186960543905  -21.69338936143183  17.535305993359533  0.000000
0.9299999999999999  0.000000  0.000000  0.000000  -35.37205030147202  3.2524679680398987  23.4387242287864  55.41624018767831  3.1009328039599726  -7.2781808461578255  22.95911216717344  35.81538510702554  -21.613407663640043  17.33582972493415  0.000000
0.945  0.000000  0.000000  0.000000  -35.210494006904696  3.634103781134896  23.50505445435357  55.54904878562088  3.99177460534855  -6.658744385692558  21.539731692455952  36.55250153913512  -20.97131822115701  17.1182966573253  0.000000
0.96  0.000000  0.000000  0.000000  -34.92297813402676  3.946843771050717  23.58433207252201  55.46878305604579  5.026964383838231  -6.4416875508905465  21.216354446423814  37.21817017126255  -21.12040015650641  16.958489615461993  0.000000
0.975  0.000000  0.000000  0.000000  -34.70033920201608  4.191138186763945  23.763684757760384  54.85141990249667  6.167979479070979  -6.574113828199686  21.918954501298042  37.769430396853316  -21.98002522252778  16.840710116056957  0.000000
0.99  0.000000  0.000000  0.000000  -34.52778168363824  4.4153500713378815  23.97224775738957  54.71920423970523  6.928143222038574  -6.449114902755478  21.953201564522686  38.399035661791196  -22.28538064070758  16.70140377475355  0.000000
1.005  0.000000  0.000000  0.000000  -34.4911755319026  4.667569294979311  24.25222593190926  54.63139446695765  7.3715294075508355  -6.162587575399728  21.579136671515688  39.01437999358392  -22.303362447085295  16.554108289421723  0.000000
1.02  0.000000  0.000000  0.000000  -34.410787115288144  4.9044315261999305  24.479572364152162  54.56836648053474  7.869867863584672  -5.99783191393335  21.582187553726804  39.55878834581191  -22.54067921411414  16.42460291746044  0.000000
1.035  0.000000  0.000000  0.000000  -34.41060998088411  5.131971560746183  24.758994743937997  54.18004742406637  8.348747476382075  -5.917636892008018  21.92062672308071  39.98194266395148  -22.998711650938915  16.309582103595325  0.000000
1.05  0.000000  0.000000  0.000000  -34.37490115826331  5.334768660517754  25.005124555080705  54.08968611790984  8.711153342628906  -5.80725794524433  22.02130235219612  40.4107073713193  -23.260351534291946  16.19681553631077  0.000000
1.065  0.000000  0.000000  0.000000  -34.425759277247394  5.543679201845597  25.306154617065417  53.863907585819064  8.936857363877037  -5.656993887715346  22.038169282144203  40.76643758873373  -23.45416690933705  16.08494666644639  0.000000
1.08  0.000000  0.000000  0.000000  -34.42852125684029  5.730548572158735  25.54549326424322  53.820722790150086  9.171447029168215  -5.542020654110124  22.09156145946258  41.10120716088811  -23.657883753203343  15.980587002146665  0.000000
1.095  0.000000  0.000000  0.000000  -34.50706334566725  5.916918114960509  25.830262350941215  53.5745476541963  9.347309919572476  -5.426114421073486  22.207551337327388  41.3486927899267  -23.891060122316265  15.887558796279297  0.000000
1.1099999999999999  0.000000  0.000000  0.000000  -34.52591654440496  6.080117849414465  26.052623476460283  53.547025044648386  9.517390146649575  -5.326363661490416  22.26381932218607  41.60200944446198  -24.07349449622161  15.80622426004354  0.000000
1.125  0.000000  0.000000  0.000000  -34.613700416241635  6.244371688670829  26.320463690186383  53.34231990715103  9.62346719632673  -5.214065347625013  22.323212490931912  41.78577675523986  -24.244571452530273  15.733001325965038  0.000000
1.14  0.000000  0.000000  0.000000  -34.63696567162784  6.3863300177932185  26.52052146434724  53.338454512060906  9.746794921949256  -5.122356348863015  22.353108097792585  41.982586693638744  -24.387922025178472  15.673769689939325  0.000000
1.155  0.000000  0.000000  0.000000  -34.72538039195488  6.53064831803277  26.764664735238096  53.15114361391918  9.819120394819878  -5.021987975238254  22.39684040679113  42.11734637437451  -24.526668436587187  15.623524076530538  0.000000
1.17  0.000000  0.000000  0.000000  -34.74538307217431  6.653981228814009  26.938860719478136  53.16277491865511  9.914052177439993  -4.939333547561039  22.406509250810736  42.27518743261826  -24.635485087653937  15.588484014876963  0.000000
1.185  0.000000  0.000000  0.000000  -34.82839991216679  6.78190137433552  27.156849537629398  52.99176533321765  9.960816403132815  -4.8474098779099295  22.426224091857367  42.37882176071355  -24.737360297014718  15.562175307051696  0.000000
1.2  0.000000  0.000000  0.000000  -34.84141906143881  6.890223073860924  27.303071709861403  53.015990524610196  10.035646570596683  -4.772227567088661  22.41718585939413  42.51106232801293  -24.813430497009392  15.551380409628152  0.000000
1.2149999999999999  0.000000  0.000000  0.000000  -34.91631663291849  7.0045875123676025  27.492760579926493  52.85658136529112  10.06468186977306  -4.6878068888866835  22.4198984416311  42.593363579652475  -24.883580953838738  15.549270950265639  0.000000
1.23  0.000000  0.000000  0.000000  -34.92014970860806  7.09954579982719  27.6091689286915  52.8910646350186  10.125189003642685  -4.620306830077025  22.39904517165616  42.707246430882805  -24.93257084881591  15.562208167900721  0.000000
1.2449999999999999  0.000000  0.000000  0.000000  -34.98503058942065  7.200919451181271  27.76866013273867  52.74148310781646  10.141086050764383  -4.544073037386246  22.39334062442735  42.772440653358395  -24.9778305565346  15.583220590176206  0.000000
1.26  0.000000  0.000000  0.000000  -34.97789624361619  7.281991249151472  27.853394352175595  52.78564680002936  10.190591193060664  -4.486227044425583  22.370797611991225  42.8692014404005  -25.0082556472706  15.618261148306278  0.000000
1.275  0.000000  0.000000  0.000000  -35.03132565191347  7.3685464518645425  27.9809345500108  52.64607943386427  10.195688405553703  -4.4212376533841145  22.36936511119995  42.91525143568716  -25.03909249294635  15.660040685555067  0.000000
